# xmcd CD database file
#
# Track frame offsets:
#	150
#	15130
#	32535
#	55932
#	70122
#	88212
#	107817
#	127650
#	141937
#	171725
#
# Disc length: 2543 seconds
#
# Revision: 2
# Processed by: cddbd v1.5.1PL0 Copyright (c) Steve Scherf et al.
# Submitted via: CDex 1.51
#
DISCID=8009ed0a
DTITLE=Skyron Orchestra - Skyron Orchestra
DYEAR=2004
DGENRE=
TTITLE0=Free Ride
TTITLE1=The Tunnel
TTITLE2=Call It Love
TTITLE3=Earthy Ground
TTITLE4=Soft Palate
TTITLE5=Nobody's Diary
TTITLE6=The Doll
TTITLE7=Exploding Mind
TTITLE8=Pax Aeterna
TTITLE9=Alena
EXTD=YEAR: 2004
EXTT0=
EXTT1=
EXTT2=
EXTT3=
EXTT4=
EXTT5=
EXTT6=
EXTT7=
EXTT8=
EXTT9=
PLAYORDER=
